<svg xmlns="http://www.w3.org/2000/svg" height="96" width="275.027" xml:space="preserve"><defs><clipPath id="a" clipPathUnits="userSpaceOnUse"><path d="M360 0 0 360.004 360 720l360-359.996L360 0"/></clipPath><clipPath id="b" clipPathUnits="userSpaceOnUse"><path d="M558.652 360.004c0-109.731-88.925-198.637-198.652-198.637-109.707 0-198.652 88.906-198.652 198.637 0 109.719 88.945 198.664 198.652 198.664 109.727 0 198.652-88.945 198.652-198.664"/></clipPath></defs><path style="fill:#0492d2;fill-opacity:1;fill-rule:nonzero;stroke:none" d="m847.055 428.027-7.149 22.411c-1.758 5.535-3.238 11.746-4.59 17.007h-.273c-1.348-5.261-2.703-11.605-4.316-17.007l-7.02-22.411zm-26.051-12.554-7.824-25.785h-17.149l29.16 90.992h21.192l29.57-90.992h-17.824l-8.231 25.785h-28.894M884.723 405.078c3.64-2.297 10.8-4.859 16.738-4.859 7.293 0 10.535 3.101 10.535 7.422 0 4.457-2.703 6.617-10.801 9.586-12.832 4.32-18.093 11.343-18.093 19.168 0 11.613 9.589 20.523 24.843 20.523 7.285 0 13.633-1.758 17.547-3.914l-3.379-11.613c-2.695 1.621-8.093 3.781-13.894 3.781-5.949 0-9.18-2.969-9.18-7.02 0-4.183 3.106-6.078 11.473-9.179 12.011-4.188 17.414-10.262 17.551-19.981 0-12.015-9.317-20.652-26.727-20.652-7.973 0-15.129 1.89-19.984 4.59l3.371 12.148M938.988 405.078c3.653-2.297 10.805-4.859 16.739-4.859 7.296 0 10.539 3.101 10.539 7.422 0 4.457-2.707 6.617-10.801 9.586-12.824 4.32-18.098 11.343-18.098 19.168 0 11.613 9.59 20.523 24.844 20.523 7.285 0 13.633-1.758 17.551-3.914l-3.371-11.613c-2.703 1.621-8.106 3.781-13.907 3.781-5.945 0-9.179-2.969-9.179-7.02 0-4.183 3.105-6.078 11.476-9.179 12.012-4.188 17.41-10.262 17.547-19.981 0-12.015-9.316-20.652-26.726-20.652-7.969 0-15.129 1.89-19.981 4.59l3.367 12.148M1023.23 400.219c9.46 0 16.07 9.179 16.07 22.543 0 10.261-4.59 22.14-15.93 22.14-11.75 0-16.48-11.476-16.48-22.414 0-12.683 6.35-22.269 16.21-22.269zm-.53-12.016c-18.5 0-32.946 12.692-32.946 33.887 0 21.598 14.176 34.828 34.016 34.828 19.58 0 32.68-13.77 32.68-33.75 0-24.164-17.02-34.965-33.62-34.965h-.13M1116.38 391.715c-3.51-1.621-10.39-3.375-18.63-3.375-20.52 0-33.88 13.226-33.88 33.613 0 19.707 13.49 34.965 36.58 34.965 6.07 0 12.28-1.352 16.06-2.973l-2.97-12.554c-2.69 1.351-6.61 2.562-12.55 2.562-12.69 0-20.25-9.308-20.11-21.328 0-13.5 8.77-21.195 20.11-21.195 5.67 0 9.86 1.215 13.09 2.57l2.3-12.285M1126.64 389.688v65.746h16.61v-65.746zm8.24 75.195c-5.53 0-9.18 4.047-9.18 8.91 0 5.129 3.78 9.043 9.31 9.043 5.67 0 9.18-3.914 9.32-9.043 0-4.863-3.65-8.91-9.32-8.91h-.13M1194 421.816c-11.74.137-22.95-2.296-22.95-12.285 0-6.48 4.18-9.449 9.46-9.449 6.75 0 11.47 4.32 13.08 9.043.41 1.215.41 2.434.41 3.648zm16.21-16.332c0-5.945.26-11.75 1.07-15.796h-14.98l-1.21 7.289h-.41c-3.92-5.133-10.8-8.774-19.45-8.774-13.22 0-20.65 9.586-20.65 19.574 0 16.469 14.72 24.977 39.01 24.84v1.078c0 4.321-1.74 11.477-13.36 11.477-6.48 0-13.23-2.024-17.68-4.859l-3.24 10.8c4.86 2.969 13.37 5.805 23.76 5.805 21.06 0 27.14-13.363 27.14-27.813v-23.621M1243.96 472.309v-16.875h15.8v-12.422h-15.8v-28.891c0-8.101 2.16-12.148 8.5-12.148 2.98 0 4.59.136 6.49.672l.27-12.551c-2.43-.949-6.89-1.754-12.02-1.754-6.21 0-11.2 2.019-14.31 5.394-3.64 3.786-5.26 9.86-5.26 18.496v30.782h-9.32v12.422h9.32v12.285l16.33 4.59M1270.27 389.688v65.746h16.61v-65.746zm8.25 75.195c-5.54 0-9.18 4.047-9.18 8.91 0 5.129 3.78 9.043 9.3 9.043 5.68 0 9.18-3.914 9.32-9.043 0-4.863-3.64-8.91-9.32-8.91h-.12M1332.11 400.219c9.45 0 16.06 9.179 16.06 22.543 0 10.261-4.59 22.14-15.92 22.14-11.75 0-16.48-11.476-16.48-22.414 0-12.683 6.35-22.269 16.2-22.269zm-.54-12.016c-18.49 0-32.94 12.692-32.94 33.887 0 21.598 14.17 34.828 34.02 34.828 19.58 0 32.67-13.77 32.67-33.75 0-24.164-17.01-34.965-33.61-34.965h-.14M1376.92 435.859c0 7.559-.26 13.903-.53 19.575h14.44l.81-9.86h.41c2.97 5.133 10.12 11.344 21.06 11.344 11.47 0 23.35-7.426 23.35-28.219v-39.011h-16.61v37.125c0 9.453-3.5 16.605-12.55 16.605-6.62 0-11.21-4.727-12.95-9.723-.55-1.347-.81-3.375-.81-5.261v-38.746h-16.62v46.171M1479.93 389.688v53.324h-8.9v12.422h8.9v2.832c0 8.507 2.3 17.011 7.97 22.414 4.85 4.59 11.48 6.34 17.14 6.34 4.45 0 7.97-.809 10.53-1.622l-1.08-12.82c-1.89.672-4.05 1.215-7.16 1.215-8.23 0-10.93-6.883-10.93-14.984v-3.375h14.45v-12.422h-14.32v-53.324h-16.6M1546.89 400.219c9.46 0 16.07 9.179 16.07 22.543 0 10.261-4.59 22.14-15.93 22.14-11.75 0-16.47-11.476-16.47-22.414 0-12.683 6.34-22.269 16.2-22.269zm-.53-12.016c-18.5 0-32.94 12.692-32.94 33.887 0 21.598 14.17 34.828 34.01 34.828 19.58 0 32.68-13.77 32.68-33.75 0-24.164-17.01-34.965-33.62-34.965h-.13M1591.71 434.238c0 8.91-.13 15.391-.54 21.196h14.31l.68-12.422h.4c3.24 9.179 10.94 13.906 18.09 13.906 1.62 0 2.57-.137 3.91-.406v-15.528c-1.48.274-2.96.407-4.99.407-7.83 0-13.36-4.996-14.85-12.555-.26-1.484-.4-3.242-.4-4.992v-34.156h-16.61v44.55M867.984 242.383c-3.918-1.887-12.558-4.043-23.625-4.043-28.886 0-46.433 18.086-46.433 45.762 0 29.968 20.918 47.929 48.73 47.929 10.938 0 18.621-2.168 22-3.918l-3.504-13.23c-4.328 1.894-10.398 3.504-17.824 3.504-18.492 0-31.855-11.602-31.855-33.477 0-19.98 11.613-32.664 31.718-32.664 6.614 0 13.633 1.348 18.086 3.231l2.707-13.094M906.598 250.215c9.453 0 16.062 9.18 16.062 22.547 0 10.265-4.59 22.14-15.926 22.14-11.75 0-16.476-11.476-16.476-22.414 0-12.683 6.347-22.273 16.203-22.273zm-.539-12.012c-18.496 0-32.938 12.684-32.938 33.887 0 21.601 14.172 34.824 34.012 34.824 19.582 0 32.676-13.769 32.676-33.75 0-24.16-17.012-34.961-33.614-34.961h-.136M951.41 285.859c0 7.559-.262 13.907-.535 19.571h14.18l.808-9.719h.403c3.105 5.129 9.043 11.203 20.254 11.203 8.632 0 15.39-4.855 18.23-12.148h.26c2.3 3.64 5 6.347 7.97 8.23 3.78 2.57 7.97 3.918 13.49 3.918 10.81 0 21.88-7.422 21.88-28.488v-38.738h-16.2v36.316c0 10.93-3.78 17.414-11.75 17.414-5.66 0-9.85-4.055-11.6-8.781-.55-1.485-.81-3.641-.81-5.528v-39.421h-16.209v38.066c0 9.18-3.652 15.664-11.336 15.664-6.211 0-10.402-4.863-12.023-9.316a19.126 19.126 0 0 1-.809-5.539v-38.875H951.41v46.171M1080.48 267.227c0-1.622.14-3.106.4-4.59 1.76-6.75 7.56-11.614 14.72-11.614 10.52 0 16.73 8.782 16.73 21.739 0 11.613-5.66 21.054-16.33 21.054-6.89 0-13.23-4.988-14.98-12.285-.28-1.347-.54-2.832-.54-4.179zm-16.61 16.336c0 8.644-.27 15.656-.54 21.867h14.58l.81-10.129h.27c4.86 7.433 12.55 11.613 22.54 11.613 15.13 0 27.68-12.961 27.68-33.476 0-23.762-14.98-35.235-29.97-35.235-8.23 0-15.12 3.504-18.5 8.77h-.26v-34.016h-16.61v70.606M1199.69 259.395c0-7.825.26-14.309.53-19.707h-14.44l-.81 9.851h-.41c-2.83-4.59-9.32-11.336-21.19-11.336-11.89 0-22.81 7.156-22.81 28.621v38.606h16.6v-35.774c0-10.937 3.51-17.957 12.28-17.957 6.75 0 11.08 4.59 12.7 8.914.67 1.348.94 3.235.94 5.129v39.688h16.61v-46.035M1234.65 322.305V305.43h15.79v-12.422h-15.79v-28.887c0-8.098 2.16-12.148 8.49-12.148 2.98 0 4.59.136 6.49.672l.27-12.559c-2.43-.938-6.88-1.746-12.02-1.746-6.21 0-11.2 2.019-14.31 5.398-3.64 3.782-5.26 9.856-5.26 18.496v30.774h-9.32v12.422h9.32v12.285l16.34 4.59M1260.97 239.688v65.742h16.61v-65.742zm8.24 75.195c-5.54 0-9.18 4.051-9.18 8.906 0 5.137 3.78 9.051 9.31 9.051 5.67 0 9.18-3.914 9.31-9.051 0-4.855-3.64-8.906-9.31-8.906h-.13M1293.5 285.859c0 7.559-.27 13.907-.54 19.571h14.44l.81-9.856h.41c2.97 5.129 10.12 11.34 21.06 11.34 11.47 0 23.36-7.422 23.36-28.215v-39.011h-16.61v37.128c0 9.442-3.51 16.602-12.55 16.602-6.62 0-11.21-4.727-12.96-9.719-.55-1.355-.81-3.379-.81-5.273v-38.738h-16.61v46.171M1411.62 279.109c0 1.614-.13 3.106-.54 4.454-1.75 6.074-6.47 10.664-13.49 10.664-9.32 0-16.2-8.106-16.2-21.465 0-11.211 5.66-20.254 16.06-20.254 6.21 0 11.61 4.055 13.5 10.129.54 1.621.67 3.914.67 5.808zm16.61-29.832c0-13.781-2.84-23.632-9.72-29.843-6.75-6.075-16.33-7.961-25.38-7.961-8.37 0-17.28 1.886-22.95 5.265l3.65 12.559c4.18-2.434 11.2-5 19.17-5 10.8 0 18.89 5.672 18.89 19.844v5.672h-.27c-3.78-5.809-10.39-9.727-19.17-9.727-16.33 0-27.94 13.508-27.94 32.141 0 21.589 14.04 34.687 29.84 34.687 10.12 0 15.92-4.855 19.03-10.254h.27l.68 8.77h14.44c-.27-4.453-.54-9.856-.54-18.899v-37.254M1547.43 276.816c-.54 11.739-1.21 25.782-1.07 38.204h-.41a485.813 485.813 0 0 0-10.8-34.836l-13.36-39.414h-12.7l-12.15 38.878c-3.5 11.61-6.74 24.032-9.18 35.372h-.27c-.4-11.887-.94-26.329-1.61-38.75l-2.03-36.582h-15.53l6.08 90.984h21.87l11.88-36.582a456.255 456.255 0 0 0 8.37-31.59h.4c2.44 9.852 5.54 21.063 9.05 31.727l12.56 36.445h21.6l5.26-90.984h-16.2l-1.76 37.128M1614.93 271.816c-11.75.137-22.95-2.296-22.95-12.285 0-6.476 4.18-9.453 9.46-9.453 6.74 0 11.47 4.324 13.08 9.051.41 1.211.41 2.422.41 3.644zm16.2-16.339c0-5.938.27-11.739 1.08-15.789h-14.98l-1.21 7.285h-.41c-3.92-5.129-10.81-8.77-19.45-8.77-13.22 0-20.65 9.578-20.65 19.57 0 16.473 14.71 24.981 39.01 24.844v1.082c0 4.317-1.75 11.477-13.36 11.477-6.48 0-13.23-2.031-17.68-4.863l-3.25 10.8c4.87 2.969 13.37 5.801 23.76 5.801 21.07 0 27.14-13.359 27.14-27.805v-23.632M1694.98 241.707c-3.51-1.621-10.39-3.367-18.62-3.367-20.53 0-33.89 13.23-33.89 33.613 0 19.707 13.5 34.961 36.58 34.961 6.08 0 12.29-1.348 16.07-2.969l-2.97-12.55c-2.7 1.347-6.61 2.558-12.56 2.558-12.69 0-20.24-9.316-20.11-21.328 0-13.496 8.77-21.191 20.11-21.191 5.67 0 9.86 1.211 13.1 2.558l2.29-12.285M1705.24 335.672h16.62v-39.149h.26a21.809 21.809 0 0 0 8.24 7.422c3.37 1.895 7.29 2.969 11.48 2.969 11.2 0 22.95-7.422 22.95-28.488v-38.738h-16.62v36.992c0 9.441-3.5 16.738-12.68 16.738-6.49 0-11.08-4.316-12.96-9.316-.54-1.485-.67-3.243-.67-4.993v-39.421h-16.62v95.984M1780.44 239.688v65.742h16.61v-65.742zm8.24 75.195c-5.54 0-9.18 4.051-9.18 8.906 0 5.137 3.78 9.051 9.31 9.051 5.67 0 9.18-3.914 9.32-9.051 0-4.855-3.65-8.906-9.32-8.906h-.13M1812.97 285.859c0 7.559-.26 13.907-.54 19.571h14.45l.81-9.856h.41c2.96 5.129 10.11 11.34 21.05 11.34 11.48 0 23.36-7.422 23.36-28.215v-39.011h-16.61v37.128c0 9.442-3.51 16.602-12.55 16.602-6.62 0-11.21-4.727-12.96-9.719-.55-1.355-.81-3.379-.81-5.273v-38.738h-16.61v46.171M1928.8 279.512c.14 6.074-2.56 16.062-13.63 16.062-10.26 0-14.58-9.316-15.26-16.062zm-28.89-11.614c.41-11.875 9.72-17.011 20.26-17.011 7.69 0 13.09 1.222 18.22 2.98l2.43-11.347c-5.67-2.434-13.51-4.18-22.95-4.18-21.34 0-33.89 13.094-33.89 33.203 0 18.23 11.07 35.371 32.13 35.371 21.33 0 28.35-17.551 28.35-31.992 0-3.106-.27-5.539-.53-7.024h-44.02M1955.8 284.238c0 8.907-.13 15.391-.54 21.192h14.31l.68-12.422h.4c3.25 9.187 10.94 13.906 18.09 13.906 1.62 0 2.57-.129 3.92-.402v-15.528c-1.49.274-2.97.411-4.99.411-7.84 0-13.37-5-14.86-12.559-.26-1.484-.4-3.242-.4-5v-34.148h-16.61v44.55M2015.34 305.43l11.74-35.235c1.36-4.043 2.84-9.043 3.78-12.687h.41c.95 3.644 2.16 8.644 3.51 12.824l10.26 35.098h17.68l-16.47-44.817c-9.04-24.57-15.12-35.508-22.81-42.254-6.61-5.675-13.36-7.832-17.41-8.371l-3.78 13.907c2.83.675 6.21 2.16 9.58 4.589 3.1 2.024 6.88 5.938 9.18 10.391.54 1.211.94 2.16.94 2.969 0 .676-.13 1.621-.81 3.242l-24.16 60.344h18.36" transform="matrix(.13333 0 0 -.13333 0 96)"/><g clip-path="url(#a)" transform="matrix(.13333 0 0 -.13333 0 96)"><path style="fill:#6ebee5;fill-opacity:1;fill-rule:nonzero;stroke:none" d="M0 719.996h720V720H0z"/><path style="fill:#6ebee5;fill-opacity:1;fill-rule:nonzero;stroke:none" d="M0 717.184h720v2.813H0zM0 714.371h720v2.813H0z"/><path style="fill:#6ebee5;fill-opacity:1;fill-rule:nonzero;stroke:none" d="M0 711.559h720v2.813H0zM0 708.746h720v2.813H0z"/><path style="fill:#6ebee5;fill-opacity:1;fill-rule:nonzero;stroke:none" d="M0 705.934h720v2.813H0zM0 703.121h720v2.813H0z"/><path style="fill:#6ebee5;fill-opacity:1;fill-rule:nonzero;stroke:none" d="M0 700.309h720v2.813H0zM0 697.496h720v2.813H0z"/><path style="fill:#6ebee5;fill-opacity:1;fill-rule:nonzero;stroke:none" d="M0 694.684h720v2.813H0zM0 691.871h720v2.813H0z"/><path style="fill:#6ebee5;fill-opacity:1;fill-rule:nonzero;stroke:none" d="M0 689.059h720v2.813H0zM0 686.246h720v2.813H0z"/><path style="fill:#6ebee5;fill-opacity:1;fill-rule:nonzero;stroke:none" d="M0 683.434h720v2.813H0zM0 680.621h720v2.813H0z"/><path style="fill:#6ebee5;fill-opacity:1;fill-rule:nonzero;stroke:none" d="M0 677.809h720v2.813H0zM0 674.996h720v2.813H0z"/><path style="fill:#6ebee5;fill-opacity:1;fill-rule:nonzero;stroke:none" d="M0 672.184h720v2.813H0zM0 669.371h720v2.813H0z"/><path style="fill:#6dbde5;fill-opacity:1;fill-rule:nonzero;stroke:none" d="M0 666.559h720v2.813H0zM0 663.746h720v2.813H0z"/><path style="fill:#6dbde5;fill-opacity:1;fill-rule:nonzero;stroke:none" d="M0 660.934h720v2.813H0zM0 658.121h720v2.813H0z"/><path style="fill:#6dbde5;fill-opacity:1;fill-rule:nonzero;stroke:none" d="M0 655.309h720v2.813H0zM0 652.496h720v2.813H0z"/><path style="fill:#6cbde5;fill-opacity:1;fill-rule:nonzero;stroke:none" d="M0 649.684h720v2.813H0zM0 646.871h720v2.813H0z"/><path style="fill:#6cbde5;fill-opacity:1;fill-rule:nonzero;stroke:none" d="M0 644.059h720v2.813H0zM0 641.246h720v2.813H0z"/><path style="fill:#6cbde5;fill-opacity:1;fill-rule:nonzero;stroke:none" d="M0 638.434h720v2.813H0z"/><path style="fill:#6bbce4;fill-opacity:1;fill-rule:nonzero;stroke:none" d="M0 635.621h720v2.813H0z"/><path style="fill:#6bbce4;fill-opacity:1;fill-rule:nonzero;stroke:none" d="M0 632.809h720v2.813H0zM0 629.996h720v2.813H0z"/><path style="fill:#6bbce4;fill-opacity:1;fill-rule:nonzero;stroke:none" d="M0 627.184h720v2.813H0zM0 624.371h720v2.813H0z"/><path style="fill:#6abce4;fill-opacity:1;fill-rule:nonzero;stroke:none" d="M0 621.559h720v2.813H0zM0 618.746h720v2.813H0z"/><path style="fill:#6abce4;fill-opacity:1;fill-rule:nonzero;stroke:none" d="M0 615.934h720v2.813H0zM0 613.121h720v2.813H0z"/><path style="fill:#69bce4;fill-opacity:1;fill-rule:nonzero;stroke:none" d="M0 610.309h720v2.813H0zM0 607.496h720v2.813H0z"/><path style="fill:#69bce4;fill-opacity:1;fill-rule:nonzero;stroke:none" d="M0 604.684h720v2.813H0zM0 601.871h720v2.813H0z"/><path style="fill:#68bbe4;fill-opacity:1;fill-rule:nonzero;stroke:none" d="M0 599.059h720v2.813H0zM0 596.246h720v2.813H0z"/><path style="fill:#68bbe4;fill-opacity:1;fill-rule:nonzero;stroke:none" d="M0 593.434h720v2.813H0z"/><path style="fill:#67bbe4;fill-opacity:1;fill-rule:nonzero;stroke:none" d="M0 590.621h720v2.813H0z"/><path style="fill:#67bbe4;fill-opacity:1;fill-rule:nonzero;stroke:none" d="M0 587.809h720v2.813H0zM0 584.996h720v2.813H0z"/><path style="fill:#67bbe4;fill-opacity:1;fill-rule:nonzero;stroke:none" d="M0 582.184h720v2.813H0z"/><path style="fill:#66bae4;fill-opacity:1;fill-rule:nonzero;stroke:none" d="M0 579.371h720v2.813H0z"/><path style="fill:#66bae4;fill-opacity:1;fill-rule:nonzero;stroke:none" d="M0 576.559h720v2.813H0zM0 573.746h720v2.813H0z"/><path style="fill:#65bae3;fill-opacity:1;fill-rule:nonzero;stroke:none" d="M0 570.934h720v2.813H0zM0 568.121h720v2.813H0z"/><path style="fill:#65bae3;fill-opacity:1;fill-rule:nonzero;stroke:none" d="M0 565.309h720v2.813H0z"/><path style="fill:#64bae3;fill-opacity:1;fill-rule:nonzero;stroke:none" d="M0 562.496h720v2.813H0z"/><path style="fill:#64bae3;fill-opacity:1;fill-rule:nonzero;stroke:none" d="M0 559.684h720v2.813H0zM0 556.871h720v2.813H0z"/><path style="fill:#64bae3;fill-opacity:1;fill-rule:nonzero;stroke:none" d="M0 554.059h720v2.813H0z"/><path style="fill:#63b9e3;fill-opacity:1;fill-rule:nonzero;stroke:none" d="M0 551.246h720v2.813H0z"/><path style="fill:#63b9e3;fill-opacity:1;fill-rule:nonzero;stroke:none" d="M0 548.434h720v2.813H0zM0 545.621h720v2.813H0z"/><path style="fill:#62b9e3;fill-opacity:1;fill-rule:nonzero;stroke:none" d="M0 542.809h720v2.813H0zM0 539.996h720v2.813H0z"/><path style="fill:#62b9e3;fill-opacity:1;fill-rule:nonzero;stroke:none" d="M0 537.184h720v2.813H0z"/><path style="fill:#61b8e3;fill-opacity:1;fill-rule:nonzero;stroke:none" d="M0 534.371h720v2.813H0z"/><path style="fill:#61b8e3;fill-opacity:1;fill-rule:nonzero;stroke:none" d="M0 531.559h720v2.813H0z"/><path style="fill:#60b8e3;fill-opacity:1;fill-rule:nonzero;stroke:none" d="M0 528.746h720v2.813H0z"/><path style="fill:#60b8e3;fill-opacity:1;fill-rule:nonzero;stroke:none" d="M0 525.934h720v2.813H0zM0 523.121h720v2.813H0z"/><path style="fill:#5fb8e2;fill-opacity:1;fill-rule:nonzero;stroke:none" d="M0 520.309h720v2.813H0zM0 517.496h720v2.813H0z"/><path style="fill:#5fb8e2;fill-opacity:1;fill-rule:nonzero;stroke:none" d="M0 514.684h720v2.813H0z"/><path style="fill:#5eb7e2;fill-opacity:1;fill-rule:nonzero;stroke:none" d="M0 511.871h720v2.813H0z"/><path style="fill:#5eb7e2;fill-opacity:1;fill-rule:nonzero;stroke:none" d="M0 509.059h720v2.813H0zM0 506.246h720v2.813H0z"/><path style="fill:#5db7e2;fill-opacity:1;fill-rule:nonzero;stroke:none" d="M0 503.434h720v2.813H0zM0 500.621h720v2.813H0z"/><path style="fill:#5cb6e2;fill-opacity:1;fill-rule:nonzero;stroke:none" d="M0 497.809h720v2.813H0zM0 494.996h720v2.813H0z"/><path style="fill:#5cb6e2;fill-opacity:1;fill-rule:nonzero;stroke:none" d="M0 492.184h720v2.813H0z"/><path style="fill:#5bb6e2;fill-opacity:1;fill-rule:nonzero;stroke:none" d="M0 489.371h720v2.813H0z"/><path style="fill:#5bb6e2;fill-opacity:1;fill-rule:nonzero;stroke:none" d="M0 486.559h720v2.813H0z"/><path style="fill:#5ab5e2;fill-opacity:1;fill-rule:nonzero;stroke:none" d="M0 483.746h720v2.813H0z"/><path style="fill:#5ab5e2;fill-opacity:1;fill-rule:nonzero;stroke:none" d="M0 480.934h720v2.813H0zM0 478.121h720v2.813H0z"/><path style="fill:#59b5e1;fill-opacity:1;fill-rule:nonzero;stroke:none" d="M0 475.309h720v2.813H0zM0 472.496h720v2.813H0z"/><path style="fill:#58b5e1;fill-opacity:1;fill-rule:nonzero;stroke:none" d="M0 469.684h720v2.813H0zM0 466.871h720v2.813H0z"/><path style="fill:#57b4e1;fill-opacity:1;fill-rule:nonzero;stroke:none" d="M0 464.059h720v2.813H0zM0 461.246h720v2.813H0z"/><path style="fill:#57b4e1;fill-opacity:1;fill-rule:nonzero;stroke:none" d="M0 458.434h720v2.813H0zM0 455.621h720v2.813H0z"/><path style="fill:#57b4e1;fill-opacity:1;fill-rule:nonzero;stroke:none" d="M0 452.809h720v2.813H0z"/><path style="fill:#56b3e1;fill-opacity:1;fill-rule:nonzero;stroke:none" d="M0 449.996h720v2.813H0z"/><path style="fill:#56b3e1;fill-opacity:1;fill-rule:nonzero;stroke:none" d="M0 447.184h720v2.813H0z"/><path style="fill:#55b3e1;fill-opacity:1;fill-rule:nonzero;stroke:none" d="M0 444.371h720v2.813H0z"/><path style="fill:#55b3e1;fill-opacity:1;fill-rule:nonzero;stroke:none" d="M0 441.559h720v2.813H0zM0 438.746h720v2.813H0z"/><path style="fill:#54b3e0;fill-opacity:1;fill-rule:nonzero;stroke:none" d="M0 435.934h720v2.813H0zM0 433.121h720v2.813H0z"/><path style="fill:#53b2e0;fill-opacity:1;fill-rule:nonzero;stroke:none" d="M0 430.309h720v2.813H0zM0 427.496h720v2.813H0z"/><path style="fill:#52b2e0;fill-opacity:1;fill-rule:nonzero;stroke:none" d="M0 424.684h720v2.813H0zM0 421.871h720v2.813H0z"/><path style="fill:#51b1e0;fill-opacity:1;fill-rule:nonzero;stroke:none" d="M0 419.059h720v2.813H0zM0 416.246h720v2.813H0z"/><path style="fill:#50b1e0;fill-opacity:1;fill-rule:nonzero;stroke:none" d="M0 413.434h720v2.813H0zM0 410.621h720v2.813H0z"/><path style="fill:#4fb1df;fill-opacity:1;fill-rule:nonzero;stroke:none" d="M0 407.809h720v2.813H0zM0 404.996h720v2.813H0z"/><path style="fill:#4eb0df;fill-opacity:1;fill-rule:nonzero;stroke:none" d="M0 402.184h720v2.813H0zM0 399.371h720v2.813H0z"/><path style="fill:#4db0df;fill-opacity:1;fill-rule:nonzero;stroke:none" d="M0 396.559h720v2.813H0zM0 393.746h720v2.813H0z"/><path style="fill:#4cafdf;fill-opacity:1;fill-rule:nonzero;stroke:none" d="M0 390.934h720v2.813H0zM0 388.121h720v2.813H0z"/><path style="fill:#4bafdf;fill-opacity:1;fill-rule:nonzero;stroke:none" d="M0 385.309h720v2.813H0zM0 382.496h720v2.813H0z"/><path style="fill:#4aafdf;fill-opacity:1;fill-rule:nonzero;stroke:none" d="M0 379.684h720v2.813H0zM0 376.871h720v2.813H0z"/><path style="fill:#49aede;fill-opacity:1;fill-rule:nonzero;stroke:none" d="M0 374.059h720v2.813H0zM0 371.25h720v2.809H0z"/><path style="fill:#48aede;fill-opacity:1;fill-rule:nonzero;stroke:none" d="M0 368.438h720v2.813H0zM0 365.625h720v2.813H0z"/><path style="fill:#47aede;fill-opacity:1;fill-rule:nonzero;stroke:none" d="M0 362.813h720v2.813H0zM0 360h720v2.813H0z"/><path style="fill:#47adde;fill-opacity:1;fill-rule:nonzero;stroke:none" d="M0 357.188h720v2.813H0zM0 354.375h720v2.813H0z"/><path style="fill:#46adde;fill-opacity:1;fill-rule:nonzero;stroke:none" d="M0 351.563h720v2.813H0zM0 348.75h720v2.813H0z"/><path style="fill:#45acde;fill-opacity:1;fill-rule:nonzero;stroke:none" d="M0 345.938h720v2.813H0zM0 343.125h720v2.813H0z"/><path style="fill:#44acdd;fill-opacity:1;fill-rule:nonzero;stroke:none" d="M0 340.313h720v2.813H0zM0 337.5h720v2.813H0z"/><path style="fill:#43acdd;fill-opacity:1;fill-rule:nonzero;stroke:none" d="M0 334.688h720v2.813H0zM0 331.875h720v2.813H0z"/><path style="fill:#42abdd;fill-opacity:1;fill-rule:nonzero;stroke:none" d="M0 329.063h720v2.813H0z"/><path style="fill:#41abdd;fill-opacity:1;fill-rule:nonzero;stroke:none" d="M0 326.25h720v2.813H0z"/><path style="fill:#41abdd;fill-opacity:1;fill-rule:nonzero;stroke:none" d="M0 323.438h720v2.813H0z"/><path style="fill:#40aadd;fill-opacity:1;fill-rule:nonzero;stroke:none" d="M0 320.625h720v2.813H0z"/><path style="fill:#40aadd;fill-opacity:1;fill-rule:nonzero;stroke:none" d="M0 317.813h720v2.813H0z"/><path style="fill:#3faadd;fill-opacity:1;fill-rule:nonzero;stroke:none" d="M0 315h720v2.813H0z"/><path style="fill:#3faadd;fill-opacity:1;fill-rule:nonzero;stroke:none" d="M0 312.188h720v2.813H0z"/><path style="fill:#3eaadc;fill-opacity:1;fill-rule:nonzero;stroke:none" d="M0 309.375h720v2.813H0z"/><path style="fill:#3da9dc;fill-opacity:1;fill-rule:nonzero;stroke:none" d="M0 306.563h720v2.813H0zM0 303.75h720v2.813H0z"/><path style="fill:#3ca9dc;fill-opacity:1;fill-rule:nonzero;stroke:none" d="M0 300.938h720v2.813H0zM0 298.125h720v2.813H0z"/><path style="fill:#3ba8dc;fill-opacity:1;fill-rule:nonzero;stroke:none" d="M0 295.313h720v2.813H0zM0 292.5h720v2.813H0z"/><path style="fill:#3aa8dc;fill-opacity:1;fill-rule:nonzero;stroke:none" d="M0 289.688h720v2.813H0z"/><path style="fill:#39a8dc;fill-opacity:1;fill-rule:nonzero;stroke:none" d="M0 286.875h720v2.813H0z"/><path style="fill:#39a8dc;fill-opacity:1;fill-rule:nonzero;stroke:none" d="M0 284.063h720v2.813H0z"/><path style="fill:#38a7db;fill-opacity:1;fill-rule:nonzero;stroke:none" d="M0 281.25h720v2.813H0z"/><path style="fill:#38a7db;fill-opacity:1;fill-rule:nonzero;stroke:none" d="M0 278.438h720v2.813H0z"/><path style="fill:#37a7db;fill-opacity:1;fill-rule:nonzero;stroke:none" d="M0 275.625h720v2.813H0z"/><path style="fill:#36a6db;fill-opacity:1;fill-rule:nonzero;stroke:none" d="M0 272.813h720v2.813H0zM0 270h720v2.813H0z"/><path style="fill:#35a6db;fill-opacity:1;fill-rule:nonzero;stroke:none" d="M0 267.188h720v2.813H0zM0 264.375h720v2.813H0z"/><path style="fill:#34a6db;fill-opacity:1;fill-rule:nonzero;stroke:none" d="M0 261.563h720v2.813H0z"/><path style="fill:#34a5db;fill-opacity:1;fill-rule:nonzero;stroke:none" d="M0 258.75h720v2.813H0z"/><path style="fill:#34a5db;fill-opacity:1;fill-rule:nonzero;stroke:none" d="M0 255.938h720v2.813H0z"/><path style="fill:#33a5da;fill-opacity:1;fill-rule:nonzero;stroke:none" d="M0 253.125h720v2.813H0z"/><path style="fill:#33a5da;fill-opacity:1;fill-rule:nonzero;stroke:none" d="M0 250.313h720v2.813H0z"/><path style="fill:#32a4da;fill-opacity:1;fill-rule:nonzero;stroke:none" d="M0 247.5h720v2.813H0z"/><path style="fill:#31a4da;fill-opacity:1;fill-rule:nonzero;stroke:none" d="M0 244.688h720v2.813H0zM0 241.875h720v2.813H0z"/><path style="fill:#30a4da;fill-opacity:1;fill-rule:nonzero;stroke:none" d="M0 239.063h720v2.813H0z"/><path style="fill:#2fa3da;fill-opacity:1;fill-rule:nonzero;stroke:none" d="M0 236.25h720v2.813H0z"/><path style="fill:#2fa3da;fill-opacity:1;fill-rule:nonzero;stroke:none" d="M0 233.438h720v2.813H0z"/><path style="fill:#2ea3da;fill-opacity:1;fill-rule:nonzero;stroke:none" d="M0 230.625h720v2.813H0z"/><path style="fill:#2ea3da;fill-opacity:1;fill-rule:nonzero;stroke:none" d="M0 227.813h720v2.813H0z"/><path style="fill:#2da3d9;fill-opacity:1;fill-rule:nonzero;stroke:none" d="M0 225h720v2.813H0z"/><path style="fill:#2ca2d9;fill-opacity:1;fill-rule:nonzero;stroke:none" d="M0 222.188h720v2.813H0zM0 219.375h720v2.813H0z"/><path style="fill:#2ba2d9;fill-opacity:1;fill-rule:nonzero;stroke:none" d="M0 216.563h720v2.813H0z"/><path style="fill:#2aa1d9;fill-opacity:1;fill-rule:nonzero;stroke:none" d="M0 213.75h720v2.813H0z"/><path style="fill:#2aa1d9;fill-opacity:1;fill-rule:nonzero;stroke:none" d="M0 210.938h720v2.813H0zM0 208.125h720v2.813H0z"/><path style="fill:#29a1d9;fill-opacity:1;fill-rule:nonzero;stroke:none" d="M0 205.313h720v2.813H0zM0 202.5h720v2.813H0z"/><path style="fill:#28a0d8;fill-opacity:1;fill-rule:nonzero;stroke:none" d="M0 199.688h720v2.813H0z"/><path style="fill:#27a0d8;fill-opacity:1;fill-rule:nonzero;stroke:none" d="M0 196.875h720v2.813H0z"/><path style="fill:#27a0d8;fill-opacity:1;fill-rule:nonzero;stroke:none" d="M0 194.063h720v2.813H0z"/><path style="fill:#26a0d8;fill-opacity:1;fill-rule:nonzero;stroke:none" d="M0 191.25h720v2.813H0z"/><path style="fill:#259fd8;fill-opacity:1;fill-rule:nonzero;stroke:none" d="M0 188.438h720v2.813H0zM0 185.625h720v2.813H0z"/><path style="fill:#249fd8;fill-opacity:1;fill-rule:nonzero;stroke:none" d="M0 182.813h720v2.813H0z"/><path style="fill:#239ed8;fill-opacity:1;fill-rule:nonzero;stroke:none" d="M0 180h720v2.813H0z"/><path style="fill:#239ed8;fill-opacity:1;fill-rule:nonzero;stroke:none" d="M0 177.188h720v2.813H0z"/><path style="fill:#229ed7;fill-opacity:1;fill-rule:nonzero;stroke:none" d="M0 174.375h720v2.813H0z"/><path style="fill:#219ed7;fill-opacity:1;fill-rule:nonzero;stroke:none" d="M0 171.563h720v2.813H0zM0 168.75h720v2.813H0z"/><path style="fill:#209dd7;fill-opacity:1;fill-rule:nonzero;stroke:none" d="M0 165.938h720v2.813H0zM0 163.125h720v2.813H0z"/><path style="fill:#209dd7;fill-opacity:1;fill-rule:nonzero;stroke:none" d="M0 160.313h720v2.813H0z"/><path style="fill:#1f9dd7;fill-opacity:1;fill-rule:nonzero;stroke:none" d="M0 157.5h720v2.813H0z"/><path style="fill:#1e9cd7;fill-opacity:1;fill-rule:nonzero;stroke:none" d="M0 154.688h720v2.813H0zM0 151.875h720v2.813H0z"/><path style="fill:#1d9cd6;fill-opacity:1;fill-rule:nonzero;stroke:none" d="M0 149.063h720v2.813H0z"/><path style="fill:#1c9cd6;fill-opacity:1;fill-rule:nonzero;stroke:none" d="M0 146.25h720v2.813H0z"/><path style="fill:#1c9cd6;fill-opacity:1;fill-rule:nonzero;stroke:none" d="M0 143.438h720v2.813H0z"/><path style="fill:#1b9bd6;fill-opacity:1;fill-rule:nonzero;stroke:none" d="M0 140.625h720v2.813H0z"/><path style="fill:#1b9bd6;fill-opacity:1;fill-rule:nonzero;stroke:none" d="M0 137.813h720v2.813H0zM0 135h720v2.813H0z"/><path style="fill:#1b9bd6;fill-opacity:1;fill-rule:nonzero;stroke:none" d="M0 132.188h720v2.813H0zM0 129.375h720v2.813H0z"/><path style="fill:#1b9bd6;fill-opacity:1;fill-rule:nonzero;stroke:none" d="M0 126.563h720v2.813H0zM0 123.75h720v2.813H0z"/><path style="fill:#1b9bd6;fill-opacity:1;fill-rule:nonzero;stroke:none" d="M0 120.938h720v2.813H0zM0 118.125h720v2.813H0z"/><path style="fill:#1b9bd6;fill-opacity:1;fill-rule:nonzero;stroke:none" d="M0 115.313h720v2.813H0zM0 112.5h720v2.813H0z"/><path style="fill:#1b9bd6;fill-opacity:1;fill-rule:nonzero;stroke:none" d="M0 109.688h720v2.813H0zM0 106.875h720v2.813H0z"/><path style="fill:#1b9bd6;fill-opacity:1;fill-rule:nonzero;stroke:none" d="M0 104.063h720v2.813H0zM0 101.25h720v2.813H0zM0 98.438h720v2.812H0zM0 95.625h720v2.813H0zM0 92.813h720v2.812H0zM0 90h720v2.813H0zM0 87.188h720V90H0zM0 84.375h720v2.813H0zM0 81.563h720v2.812H0zM0 78.75h720v2.813H0zM0 75.938h720v2.812H0zM0 73.125h720v2.813H0zM0 70.313h720v2.812H0zM0 67.5h720v2.813H0zM0 64.688h720V67.5H0zM0 61.875h720v2.813H0zM0 59.063h720v2.812H0zM0 56.25h720v2.813H0zM0 53.438h720v2.812H0zM0 50.625h720v2.813H0zM0 47.813h720v2.812H0zM0 45h720v2.813H0zM0 42.188h720V45H0zM0 39.375h720v2.813H0zM0 36.563h720v2.812H0zM0 33.75h720v2.813H0zM0 30.938h720v2.812H0zM0 28.125h720v2.813H0zM0 25.313h720v2.812H0zM0 22.5h720v2.813H0zM0 19.688h720V22.5H0zM0 16.875h720v2.813H0zM0 14.063h720v2.812H0zM0 11.25h720v2.813H0zM0 8.438h720v2.812H0zM0 5.625h720v2.813H0zM0 2.813h720v2.812H0zM0 0h720v2.813H0zM720 0H0z"/></g><path style="fill:#fff;fill-opacity:1;fill-rule:nonzero;stroke:none" d="M580.723 360.004c0-121.918-98.809-220.727-220.723-220.727-121.895 0-220.723 98.809-220.723 220.727 0 121.906 98.828 220.723 220.723 220.723 121.914 0 220.723-98.817 220.723-220.723" transform="matrix(.13333 0 0 -.13333 0 96)"/><g clip-path="url(#b)" transform="matrix(.13333 0 0 -.13333 0 96)"><path style="fill:#7bc4e7;fill-opacity:1;fill-rule:nonzero;stroke:none" d="M161.348 161.367h397.305v1.605H161.348zM161.348 162.973h397.305v1.605H161.348zM161.348 164.578h397.305v1.602H161.348zM161.348 166.18h397.305v1.605H161.348zM161.348 167.785h397.305v1.605H161.348zM161.348 169.391h397.305v1.605H161.348zM161.348 170.996h397.305v1.605H161.348zM161.348 172.602h397.305v1.605H161.348z"/><path style="fill:#7ac3e7;fill-opacity:1;fill-rule:nonzero;stroke:none" d="M161.348 174.207h397.305v1.605H161.348zM161.348 175.813h397.305v1.602H161.348z"/><path style="fill:#7ac3e7;fill-opacity:1;fill-rule:nonzero;stroke:none" d="M161.348 177.414h397.305v1.605H161.348zM161.348 179.02h397.305v1.605H161.348zM161.348 180.625h397.305v1.605H161.348zM161.348 182.23h397.305v1.605H161.348zM161.348 183.836h397.305v1.605H161.348z"/><path style="fill:#79c3e7;fill-opacity:1;fill-rule:nonzero;stroke:none" d="M161.348 185.441h397.305v1.602H161.348zM161.348 187.043h397.305v1.605H161.348zM161.348 188.648h397.305v1.605H161.348zM161.348 190.254h397.305v1.605H161.348zM161.348 191.859h397.305v1.605H161.348zM161.348 193.465h397.305v1.605H161.348z"/><path style="fill:#78c2e7;fill-opacity:1;fill-rule:nonzero;stroke:none" d="M161.348 195.07v1.602l397.304.004v-1.606z"/><path style="fill:#78c2e7;fill-opacity:1;fill-rule:nonzero;stroke:none" d="M161.348 196.672v1.605h397.304v-1.601zM161.348 198.277h397.305v1.605H161.348zM161.348 199.883h397.305v1.605H161.348zM161.348 201.488h397.305v1.605H161.348z"/><path style="fill:#77c2e7;fill-opacity:1;fill-rule:nonzero;stroke:none" d="M161.348 203.094h397.305v1.605H161.348zM161.348 204.699h397.305v1.605H161.348zM161.348 206.305h397.305v1.602H161.348z"/><path style="fill:#77c2e7;fill-opacity:1;fill-rule:nonzero;stroke:none" d="M161.348 207.906h397.305v1.605H161.348z"/><path style="fill:#76c1e7;fill-opacity:1;fill-rule:nonzero;stroke:none" d="M161.348 209.512h397.305v1.605H161.348zM161.348 211.117h397.305v1.605H161.348zM161.348 212.723h397.305v1.605H161.348zM161.348 214.328h397.305v1.605H161.348z"/><path style="fill:#75c1e6;fill-opacity:1;fill-rule:nonzero;stroke:none" d="M161.348 215.934h397.305v1.602H161.348z"/><path style="fill:#75c1e6;fill-opacity:1;fill-rule:nonzero;stroke:none" d="M161.348 217.535h397.305v1.605H161.348zM161.348 219.141h397.305v1.605H161.348zM161.348 220.746h397.305v1.605H161.348z"/><path style="fill:#74c1e6;fill-opacity:1;fill-rule:nonzero;stroke:none" d="M161.348 222.352h397.305v1.605H161.348zM161.348 223.957h397.305v1.605H161.348zM161.348 225.563h397.305v1.605H161.348z"/><path style="fill:#73c0e6;fill-opacity:1;fill-rule:nonzero;stroke:none" d="M161.348 227.168h397.305v1.602H161.348zM161.348 228.77h397.305v1.605H161.348zM161.348 230.375h397.305v1.605H161.348z"/><path style="fill:#72c0e6;fill-opacity:1;fill-rule:nonzero;stroke:none" d="M161.348 231.98h397.305v1.605H161.348zM161.348 233.586h397.305v1.605H161.348zM161.348 235.191h397.305v1.605H161.348z"/><path style="fill:#71bfe6;fill-opacity:1;fill-rule:nonzero;stroke:none" d="M161.348 236.797h397.305v1.602H161.348z"/><path style="fill:#71bfe6;fill-opacity:1;fill-rule:nonzero;stroke:none" d="M161.348 238.398h397.305v1.605H161.348zM161.348 240.004h397.305v1.605H161.348z"/><path style="fill:#70bfe6;fill-opacity:1;fill-rule:nonzero;stroke:none" d="M161.348 241.609h397.305v1.605H161.348zM161.348 243.215h397.305v1.605H161.348zM161.348 244.82h397.305v1.605H161.348z"/><path style="fill:#6fbfe5;fill-opacity:1;fill-rule:nonzero;stroke:none" d="M161.348 246.426h397.305v1.602H161.348z"/><path style="fill:#6fbfe5;fill-opacity:1;fill-rule:nonzero;stroke:none" d="M161.348 248.027h397.305v1.605H161.348zM161.348 249.633h397.305v1.605H161.348z"/><path style="fill:#6ebee5;fill-opacity:1;fill-rule:nonzero;stroke:none" d="M161.348 251.238h397.305v1.605H161.348zM161.348 252.844h397.305v1.605H161.348zM161.348 254.449h397.305v1.605H161.348zM161.348 256.055h397.305v1.605H161.348zM161.348 257.66h397.305v1.602H161.348z"/><path style="fill:#6dbde5;fill-opacity:1;fill-rule:nonzero;stroke:none" d="M161.348 259.262h397.305v1.605H161.348zM161.348 260.867h397.305v1.605H161.348zM161.348 262.473h397.305v1.605H161.348z"/><path style="fill:#6cbde5;fill-opacity:1;fill-rule:nonzero;stroke:none" d="M161.348 264.078h397.305v1.605H161.348zM161.348 265.684h397.305v1.605H161.348z"/><path style="fill:#6cbde5;fill-opacity:1;fill-rule:nonzero;stroke:none" d="M161.348 267.289h397.305v1.602H161.348z"/><path style="fill:#6bbce4;fill-opacity:1;fill-rule:nonzero;stroke:none" d="M161.348 268.891h397.305v1.605H161.348z"/><path style="fill:#6bbce4;fill-opacity:1;fill-rule:nonzero;stroke:none" d="M161.348 270.496h397.305v1.605H161.348z"/><path style="fill:#6abce4;fill-opacity:1;fill-rule:nonzero;stroke:none" d="M161.348 272.102h397.305v1.605H161.348zM161.348 273.707h397.305v1.605H161.348z"/><path style="fill:#69bce4;fill-opacity:1;fill-rule:nonzero;stroke:none" d="M161.348 275.313h397.305v1.605H161.348zM161.348 276.918h397.305v1.602H161.348zM161.348 278.52h397.305v1.605H161.348z"/><path style="fill:#68bbe4;fill-opacity:1;fill-rule:nonzero;stroke:none" d="M161.348 280.125h397.305v1.605H161.348zM161.348 281.73h397.305v1.605H161.348z"/><path style="fill:#67bbe4;fill-opacity:1;fill-rule:nonzero;stroke:none" d="M161.348 283.336h397.305v1.605H161.348z"/><path style="fill:#67bbe4;fill-opacity:1;fill-rule:nonzero;stroke:none" d="M161.348 284.941h397.305v1.605H161.348z"/><path style="fill:#66bae4;fill-opacity:1;fill-rule:nonzero;stroke:none" d="M161.348 286.547h397.305v1.605H161.348z"/><path style="fill:#66bae4;fill-opacity:1;fill-rule:nonzero;stroke:none" d="M161.348 288.152h397.305v1.602H161.348zM161.348 289.754h397.305v1.605H161.348z"/><path style="fill:#65bae3;fill-opacity:1;fill-rule:nonzero;stroke:none" d="M161.348 291.359h397.305v1.605H161.348zM161.348 292.965h397.305v1.605H161.348z"/><path style="fill:#64bae3;fill-opacity:1;fill-rule:nonzero;stroke:none" d="M161.348 294.57h397.305v1.605H161.348zM161.348 296.176h397.305v1.605H161.348z"/><path style="fill:#63b9e3;fill-opacity:1;fill-rule:nonzero;stroke:none" d="M161.348 297.781h397.305v1.602H161.348zM161.348 299.383h397.305v1.605H161.348z"/><path style="fill:#62b9e3;fill-opacity:1;fill-rule:nonzero;stroke:none" d="M161.348 300.988h397.305v1.605H161.348zM161.348 302.594h397.305v1.605H161.348z"/><path style="fill:#61b8e3;fill-opacity:1;fill-rule:nonzero;stroke:none" d="M161.348 304.199h397.305v1.605H161.348zM161.348 305.805h397.305v1.605H161.348z"/><path style="fill:#60b8e3;fill-opacity:1;fill-rule:nonzero;stroke:none" d="M161.348 307.41h397.305v1.605H161.348zM161.348 309.016h397.305v1.602H161.348z"/><path style="fill:#5fb8e2;fill-opacity:1;fill-rule:nonzero;stroke:none" d="M161.348 310.617h397.305v1.605H161.348zM161.348 312.223h397.305v1.605H161.348z"/><path style="fill:#5eb7e2;fill-opacity:1;fill-rule:nonzero;stroke:none" d="M161.348 313.828h397.305v1.605H161.348zM161.348 315.434h397.305v1.605H161.348z"/><path style="fill:#5db7e2;fill-opacity:1;fill-rule:nonzero;stroke:none" d="M161.348 317.039h397.305v1.605H161.348zM161.348 318.645h397.305v1.602H161.348z"/><path style="fill:#5cb6e2;fill-opacity:1;fill-rule:nonzero;stroke:none" d="M161.348 320.246h397.305v1.605H161.348zM161.348 321.852h397.305v1.605H161.348z"/><path style="fill:#5bb6e2;fill-opacity:1;fill-rule:nonzero;stroke:none" d="M161.348 323.457h397.305v1.605H161.348zM161.348 325.063h397.305v1.605H161.348z"/><path style="fill:#5ab5e2;fill-opacity:1;fill-rule:nonzero;stroke:none" d="M161.348 326.668h397.305v1.605H161.348zM161.348 328.273h397.305v1.602H161.348z"/><path style="fill:#59b5e1;fill-opacity:1;fill-rule:nonzero;stroke:none" d="M161.348 329.875h397.305v1.605H161.348zM161.348 331.48h397.305v1.605H161.348z"/><path style="fill:#58b5e1;fill-opacity:1;fill-rule:nonzero;stroke:none" d="M161.348 333.086h397.305v1.605H161.348z"/><path style="fill:#58b5e1;fill-opacity:1;fill-rule:nonzero;stroke:none" d="M161.348 334.691h397.305v1.605H161.348z"/><path style="fill:#57b4e1;fill-opacity:1;fill-rule:nonzero;stroke:none" d="M161.348 336.297h397.305v1.605H161.348z"/><path style="fill:#57b4e1;fill-opacity:1;fill-rule:nonzero;stroke:none" d="M161.348 337.902h397.305v1.605H161.348zM161.348 339.508h397.305v1.602H161.348z"/><path style="fill:#56b3e1;fill-opacity:1;fill-rule:nonzero;stroke:none" d="M161.348 341.109h397.305v1.605H161.348zM161.348 342.715h397.305v1.605H161.348z"/><path style="fill:#55b3e1;fill-opacity:1;fill-rule:nonzero;stroke:none" d="M161.348 344.32h397.305v1.605H161.348zM161.348 345.926h397.305v1.605H161.348z"/><path style="fill:#54b3e0;fill-opacity:1;fill-rule:nonzero;stroke:none" d="M161.348 347.531h397.305v1.605H161.348zM161.348 349.137h397.305v1.602H161.348z"/><path style="fill:#53b2e0;fill-opacity:1;fill-rule:nonzero;stroke:none" d="M161.348 350.738h397.305v1.605H161.348z"/><path style="fill:#52b2e0;fill-opacity:1;fill-rule:nonzero;stroke:none" d="M161.348 352.344h397.305v1.605H161.348zM161.348 353.949h397.305v1.605H161.348z"/><path style="fill:#51b1e0;fill-opacity:1;fill-rule:nonzero;stroke:none" d="M161.348 355.555h397.305v1.605H161.348zM161.348 357.16h397.305v1.605H161.348z"/><path style="fill:#50b1e0;fill-opacity:1;fill-rule:nonzero;stroke:none" d="M161.348 358.766h397.305v1.602H161.348z"/><path style="fill:#50b1e0;fill-opacity:1;fill-rule:nonzero;stroke:none" d="M161.348 360.367h397.305v1.605H161.348z"/><path style="fill:#4fb1df;fill-opacity:1;fill-rule:nonzero;stroke:none" d="M161.348 361.973h397.305v1.605H161.348z"/><path style="fill:#4eb0df;fill-opacity:1;fill-rule:nonzero;stroke:none" d="M161.348 363.578h397.305v1.605H161.348zM161.348 365.184h397.305v1.605H161.348z"/><path style="fill:#4db0df;fill-opacity:1;fill-rule:nonzero;stroke:none" d="M161.348 366.789h397.305v1.605H161.348zM161.348 368.395h397.305V370H161.348z"/><path style="fill:#4cafdf;fill-opacity:1;fill-rule:nonzero;stroke:none" d="M161.348 370h397.305v1.602H161.348z"/><path style="fill:#4bafdf;fill-opacity:1;fill-rule:nonzero;stroke:none" d="M161.348 371.602h397.305v1.605H161.348zM161.348 373.207h397.305v1.605H161.348z"/><path style="fill:#4aafdf;fill-opacity:1;fill-rule:nonzero;stroke:none" d="M161.348 374.813h397.305v1.605H161.348z"/><path style="fill:#49aede;fill-opacity:1;fill-rule:nonzero;stroke:none" d="M161.348 376.418h397.305v1.605H161.348zM161.348 378.023h397.305v1.605H161.348z"/><path style="fill:#48aede;fill-opacity:1;fill-rule:nonzero;stroke:none" d="M161.348 379.629h397.305v1.602H161.348z"/><path style="fill:#48aede;fill-opacity:1;fill-rule:nonzero;stroke:none" d="M161.348 381.23h397.305v1.605H161.348z"/><path style="fill:#47aede;fill-opacity:1;fill-rule:nonzero;stroke:none" d="M161.348 382.836h397.305v1.605H161.348z"/><path style="fill:#47adde;fill-opacity:1;fill-rule:nonzero;stroke:none" d="M161.348 384.441h397.305v1.605H161.348zM161.348 386.047h397.305v1.605H161.348z"/><path style="fill:#46adde;fill-opacity:1;fill-rule:nonzero;stroke:none" d="M161.348 387.652h397.305v1.605H161.348z"/><path style="fill:#45acde;fill-opacity:1;fill-rule:nonzero;stroke:none" d="M161.348 389.258h397.305v1.605H161.348zM161.348 390.863h397.305v1.602H161.348z"/><path style="fill:#44acdd;fill-opacity:1;fill-rule:nonzero;stroke:none" d="M161.348 392.465h397.305v1.605H161.348z"/><path style="fill:#43acdd;fill-opacity:1;fill-rule:nonzero;stroke:none" d="M161.348 394.07h397.305v1.605H161.348zM161.348 395.676h397.305v1.605H161.348z"/><path style="fill:#42abdd;fill-opacity:1;fill-rule:nonzero;stroke:none" d="M161.348 397.281h397.305v1.605H161.348zM161.348 398.887h397.305v1.605H161.348z"/><path style="fill:#41abdd;fill-opacity:1;fill-rule:nonzero;stroke:none" d="M161.348 400.492h397.305v1.602H161.348z"/><path style="fill:#40aadd;fill-opacity:1;fill-rule:nonzero;stroke:none" d="M161.348 402.094h397.305v1.605H161.348zM161.348 403.699h397.305v1.605H161.348z"/><path style="fill:#3faadd;fill-opacity:1;fill-rule:nonzero;stroke:none" d="M161.348 405.305h397.305v1.605H161.348z"/><path style="fill:#3eaadc;fill-opacity:1;fill-rule:nonzero;stroke:none" d="M161.348 406.91h397.305v1.605H161.348zM161.348 408.516h397.305v1.605H161.348z"/><path style="fill:#3da9dc;fill-opacity:1;fill-rule:nonzero;stroke:none" d="M161.348 410.121h397.305v1.602H161.348z"/><path style="fill:#3ca9dc;fill-opacity:1;fill-rule:nonzero;stroke:none" d="M161.348 411.723h397.305v1.605H161.348z"/><path style="fill:#3ba8dc;fill-opacity:1;fill-rule:nonzero;stroke:none" d="M161.348 413.328h397.305v1.605H161.348zM161.348 414.934h397.305v1.605H161.348z"/><path style="fill:#3aa8dc;fill-opacity:1;fill-rule:nonzero;stroke:none" d="M161.348 416.539h397.305v1.605H161.348z"/><path style="fill:#39a8dc;fill-opacity:1;fill-rule:nonzero;stroke:none" d="M161.348 418.145h397.305v1.605H161.348zM161.348 419.75h397.305v1.605H161.348z"/><path style="fill:#38a7db;fill-opacity:1;fill-rule:nonzero;stroke:none" d="M161.348 421.355h397.305v1.602H161.348z"/><path style="fill:#37a7db;fill-opacity:1;fill-rule:nonzero;stroke:none" d="M161.348 422.957h397.305v1.605H161.348zM161.348 424.563h397.305v1.605H161.348z"/><path style="fill:#36a6db;fill-opacity:1;fill-rule:nonzero;stroke:none" d="M161.348 426.168h397.305v1.605H161.348z"/><path style="fill:#35a6db;fill-opacity:1;fill-rule:nonzero;stroke:none" d="M161.348 427.773h397.305v1.605H161.348zM161.348 429.379h397.305v1.605H161.348z"/><path style="fill:#34a6db;fill-opacity:1;fill-rule:nonzero;stroke:none" d="M161.348 430.984h397.305v1.602H161.348z"/><path style="fill:#34a5db;fill-opacity:1;fill-rule:nonzero;stroke:none" d="M161.348 432.586h397.305v1.605H161.348z"/><path style="fill:#33a5da;fill-opacity:1;fill-rule:nonzero;stroke:none" d="M161.348 434.191h397.305v1.605H161.348zM161.348 435.797h397.305v1.605H161.348z"/><path style="fill:#32a4da;fill-opacity:1;fill-rule:nonzero;stroke:none" d="M161.348 437.402h397.305v1.605H161.348z"/><path style="fill:#31a4da;fill-opacity:1;fill-rule:nonzero;stroke:none" d="M161.348 439.008h397.305v1.605H161.348zM161.348 440.613h397.305v1.602H161.348z"/><path style="fill:#30a4da;fill-opacity:1;fill-rule:nonzero;stroke:none" d="M161.348 442.215h397.305v1.605H161.348z"/><path style="fill:#2fa3da;fill-opacity:1;fill-rule:nonzero;stroke:none" d="M161.348 443.82h397.305v1.605H161.348z"/><path style="fill:#2ea3da;fill-opacity:1;fill-rule:nonzero;stroke:none" d="M161.348 445.426h397.305v1.605H161.348zM161.348 447.031h397.305v1.605H161.348z"/><path style="fill:#2da3d9;fill-opacity:1;fill-rule:nonzero;stroke:none" d="M161.348 448.637h397.305v1.605H161.348z"/><path style="fill:#2ca2d9;fill-opacity:1;fill-rule:nonzero;stroke:none" d="M161.348 450.242h397.305v1.605H161.348z"/><path style="fill:#2ba2d9;fill-opacity:1;fill-rule:nonzero;stroke:none" d="M161.348 451.848h397.305v1.602H161.348z"/><path style="fill:#2ba2d9;fill-opacity:1;fill-rule:nonzero;stroke:none" d="M161.348 453.449h397.305v1.605H161.348z"/><path style="fill:#2aa1d9;fill-opacity:1;fill-rule:nonzero;stroke:none" d="M161.348 455.055h397.305v1.605H161.348zM161.348 456.66h397.305v1.605H161.348z"/><path style="fill:#29a1d9;fill-opacity:1;fill-rule:nonzero;stroke:none" d="M161.348 458.266h397.305v1.605H161.348z"/><path style="fill:#29a1d9;fill-opacity:1;fill-rule:nonzero;stroke:none" d="M161.348 459.871h397.305v1.605H161.348z"/><path style="fill:#28a0d8;fill-opacity:1;fill-rule:nonzero;stroke:none" d="M161.348 461.477h397.305v1.602H161.348z"/><path style="fill:#27a0d8;fill-opacity:1;fill-rule:nonzero;stroke:none" d="M161.348 463.078h397.305v1.605H161.348z"/><path style="fill:#26a0d8;fill-opacity:1;fill-rule:nonzero;stroke:none" d="M161.348 464.684h397.305v1.605H161.348z"/><path style="fill:#26a0d8;fill-opacity:1;fill-rule:nonzero;stroke:none" d="M161.348 466.289h397.305v1.605H161.348z"/><path style="fill:#259fd8;fill-opacity:1;fill-rule:nonzero;stroke:none" d="M161.348 467.895h397.305v1.605H161.348z"/><path style="fill:#249fd8;fill-opacity:1;fill-rule:nonzero;stroke:none" d="M161.348 469.5h397.305v1.605H161.348z"/><path style="fill:#239ed8;fill-opacity:1;fill-rule:nonzero;stroke:none" d="M161.348 471.105v1.602l397.304.004v-1.606z"/><path style="fill:#239ed8;fill-opacity:1;fill-rule:nonzero;stroke:none" d="M161.348 472.707v1.606h397.304v-1.602z"/><path style="fill:#229ed7;fill-opacity:1;fill-rule:nonzero;stroke:none" d="M161.348 474.313h397.305v1.605H161.348z"/><path style="fill:#219ed7;fill-opacity:1;fill-rule:nonzero;stroke:none" d="M161.348 475.918h397.305v1.605H161.348z"/><path style="fill:#209dd7;fill-opacity:1;fill-rule:nonzero;stroke:none" d="M161.348 477.523h397.305v1.605H161.348zM161.348 479.129h397.305v1.605H161.348z"/><path style="fill:#209dd7;fill-opacity:1;fill-rule:nonzero;stroke:none" d="M161.348 480.734h397.305v1.605H161.348z"/><path style="fill:#1f9dd7;fill-opacity:1;fill-rule:nonzero;stroke:none" d="M161.348 482.34h397.305v1.602H161.348z"/><path style="fill:#1e9cd7;fill-opacity:1;fill-rule:nonzero;stroke:none" d="M161.348 483.941h397.305v1.605H161.348z"/><path style="fill:#1d9cd6;fill-opacity:1;fill-rule:nonzero;stroke:none" d="M161.348 485.547h397.305v1.605H161.348z"/><path style="fill:#1c9cd6;fill-opacity:1;fill-rule:nonzero;stroke:none" d="M161.348 487.152h397.305v1.605H161.348zM161.348 488.758h397.305v1.605H161.348z"/><path style="fill:#1b9bd6;fill-opacity:1;fill-rule:nonzero;stroke:none" d="M161.348 490.363h397.305v1.605H161.348zM161.348 491.969h397.305v1.602H161.348z"/><path style="fill:#1b9bd6;fill-opacity:1;fill-rule:nonzero;stroke:none" d="M161.348 493.57h397.305v1.605H161.348zM161.348 495.176h397.305v1.605H161.348zM161.348 496.781h397.305v1.605H161.348zM161.348 498.387h397.305v1.605H161.348zM161.348 499.992h397.305v1.605H161.348zM161.348 501.598h397.305v1.605H161.348z"/><path style="fill:#1b9bd6;fill-opacity:1;fill-rule:nonzero;stroke:none" d="M161.348 503.203h397.305v1.602H161.348zM161.348 504.805h397.305v1.605H161.348zM161.348 506.41h397.305v1.605H161.348zM161.348 508.016h397.305v1.605H161.348z"/><path style="fill:#1b9bd6;fill-opacity:1;fill-rule:nonzero;stroke:none" d="M161.348 509.621h397.305v1.605H161.348zM161.348 511.227h397.305v1.605H161.348zM161.348 512.832h397.305v1.602H161.348zM161.348 514.434h397.305v1.605H161.348zM161.348 516.039h397.305v1.605H161.348zM161.348 517.645h397.305v1.605H161.348zM161.348 519.25h397.305v1.605H161.348zM161.348 520.855h397.305v1.605H161.348zM161.348 522.461h397.305v1.602H161.348zM161.348 524.063h397.305v1.605H161.348zM161.348 525.668h397.305v1.605H161.348zM161.348 527.273h397.305v1.605H161.348zM161.348 528.879h397.305v1.605H161.348zM161.348 530.484h397.305v1.605H161.348zM161.348 532.09h397.305v1.605H161.348zM161.348 533.695h397.305v1.602H161.348zM161.348 535.297h397.305v1.605H161.348zM161.348 536.902h397.305v1.605H161.348zM161.348 538.508h397.305v1.605H161.348zM161.348 540.113h397.305v1.605H161.348zM161.348 541.719h397.305v1.605H161.348z"/><path style="fill:#1b9bd6;fill-opacity:1;fill-rule:nonzero;stroke:none" d="M161.348 543.324h397.305v1.602H161.348zM161.348 544.926h397.305v1.605H161.348z"/><path style="fill:#1b9bd6;fill-opacity:1;fill-rule:nonzero;stroke:none" d="M161.348 546.531h397.305v1.605H161.348zM161.348 548.137h397.305v1.605H161.348zM161.348 549.742h397.305v1.605H161.348zM161.348 551.348h397.305v1.605H161.348zM161.348 552.953h397.305v1.602H161.348zM161.348 554.555h397.305v1.605H161.348zM161.348 556.16h397.305v1.605H161.348zM161.348 557.766h397.305v1.605H161.348z"/></g><path style="fill:#fff;fill-opacity:1;fill-rule:nonzero;stroke:none" d="M244.336 336.23v19.829c-5.02-.508-9.063-.957-12.148-1.309a41.082 41.082 0 0 1-9.122-2.168c-2.597-.902-4.609-2.269-6.054-4.125-1.426-1.816-2.149-4.277-2.149-7.305 0-4.472 1.211-7.519 3.594-9.199 2.383-1.66 5.918-2.48 10.606-2.48 2.578 0 5.214.586 7.929 1.757 2.696 1.172 5.137 2.872 7.344 5zm0-14.902c-2.031-1.699-3.867-3.223-5.469-4.57-1.621-1.387-3.789-2.754-6.504-4.102-2.656-1.289-5.254-2.285-7.773-2.929-2.52-.645-6.035-.997-10.567-.997-8.437 0-15.449 2.833-21.015 8.516-5.586 5.664-8.36 12.813-8.36 21.445 0 7.129 1.407 12.832 4.239 17.211 2.832 4.375 6.914 7.832 12.226 10.391 5.391 2.598 11.797 4.414 19.278 5.449 7.48 1.016 15.507 1.817 24.121 2.383v.508c0 5.273-1.953 8.906-5.821 10.918-3.886 2.023-9.687 3.027-17.461 3.027-3.496 0-7.597-.644-12.304-1.933a97.035 97.035 0 0 1-13.75-4.922h-2.539v23.164c2.949.859 7.715 1.855 14.316 3.027a113.425 113.425 0 0 0 19.922 1.758c16.484 0 28.496-2.754 36.016-8.242 7.519-5.469 11.289-13.848 11.289-25.098v-65.141h-29.844v10.137M339.668 308.73c-7.91 0-15.156.997-21.719 2.989-6.562 1.953-12.265 5.039-17.09 9.199-4.785 4.121-8.515 9.316-11.191 15.586-2.676 6.269-4.004 13.652-4.004 22.172 0 9.14 1.445 16.914 4.356 23.332 2.89 6.394 6.816 11.668 11.777 15.82 4.766 3.965 10.371 6.914 16.836 8.797 6.465 1.895 13.183 2.863 20.176 2.863 5.293 0 10.586-.617 15.879-1.847 5.292-1.2 10.605-3.164 15.957-5.828v-25.598h-3.848c-1.192 1.133-2.656 2.383-4.395 3.75a42.086 42.086 0 0 1-5.683 3.769c-2.149 1.204-4.61 2.2-7.324 3.028-2.735.82-5.782 1.23-9.141 1.23-7.637 0-13.535-2.637-17.715-7.949-4.18-5.293-6.269-12.402-6.269-21.367 0-9.574 2.226-16.723 6.699-21.41 4.472-4.688 10.39-7.071 17.793-7.071 3.75 0 7.051.45 9.902 1.289 2.852.821 5.293 1.856 7.344 3.028 1.992 1.191 3.691 2.402 5.117 3.691a89.452 89.452 0 0 1 3.672 3.399h3.848v-25.489c-1.719-.742-3.692-1.582-5.938-2.558a58.01 58.01 0 0 0-6.855-2.364c-2.911-.8-5.625-1.406-8.164-1.816-2.52-.41-5.879-.645-10.02-.645M500.762 311.191v47.836c0 4.707-.098 8.692-.254 11.934-.176 3.223-.684 5.879-1.543 7.93-.86 2.031-2.188 3.535-3.985 4.464-1.796.946-4.316 1.415-7.578 1.415-2.265 0-4.531-.508-6.738-1.473-2.226-1.016-4.668-2.434-7.285-4.25v-67.856h-29.844v47.836c0 4.649-.097 8.614-.293 11.895-.215 3.262-.722 5.918-1.582 7.969-.859 2.031-2.187 3.535-3.984 4.464-1.797.946-4.297 1.415-7.481 1.415-2.441 0-4.843-.567-7.187-1.7a52.558 52.558 0 0 1-6.836-4.023v-67.856h-29.844v95.629h29.844v-10.547c4.863 4.161 9.473 7.383 13.789 9.707 4.316 2.344 9.16 3.508 14.551 3.508 5.859 0 10.996-1.398 15.41-4.179 4.433-2.786 7.812-6.926 10.137-12.434 5.742 5.332 11.152 9.434 16.23 12.305 5.078 2.871 10.234 4.308 15.449 4.308 4.434 0 8.399-.722 11.914-2.14 3.536-1.426 6.504-3.543 8.946-6.387 2.675-3.066 4.668-6.707 5.996-10.945 1.347-4.231 2.011-9.758 2.011-16.555v-62.27h-29.843" transform="matrix(.13333 0 0 -.13333 0 96)"/></svg>